<?xml version="1.0" standalone="no"?>
<!DOCTYPE svg PUBLIC "-//W3C//DTD SVG 20010904//EN"
 "http://www.w3.org/TR/2001/REC-SVG-20010904/DTD/svg10.dtd">
<svg version="1.0" xmlns="http://www.w3.org/2000/svg"
 width="800.000000pt" height="800.000000pt" viewBox="0 0 800.000000 800.000000"
 preserveAspectRatio="xMidYMid meet">
<metadata>
Created by potrace 1.14, written by Peter Selinger 2001-2017
</metadata>
<g transform="translate(0.000000,800.000000) scale(0.100000,-0.100000)"
fill="#000000" stroke="none">
<path d="M1445 7548 c56 -117 438 -896 849 -1732 l746 -1519 -849 -2026 -849
-2026 1329 -3 c731 -1 1927 -1 2658 0 l1329 3 -849 2026 -849 2026 746 1519
c411 836 793 1615 849 1732 l104 212 -2659 0 -2659 0 104 -212z m3785 -683 c0
-8 -711 -1459 -720 -1468 -4 -4 -119 260 -256 587 -137 328 -251 596 -254 596
-3 0 -117 -268 -254 -596 -137 -327 -252 -591 -256 -587 -9 9 -720 1460 -720
1468 0 3 554 5 1230 5 677 0 1230 -2 1230 -5z m-1096 -2889 l127 -303 -131
-263 c-72 -144 -135 -259 -139 -254 -4 5 -63 122 -131 261 l-123 252 128 306
c71 168 131 305 135 305 4 0 64 -137 134 -304z m-354 -1186 c118 -242 217
-440 220 -440 3 0 102 198 220 440 118 242 218 440 221 440 6 0 879 -2078 879
-2092 0 -5 -594 -8 -1320 -8 -726 0 -1320 3 -1320 8 0 14 873 2092 879 2092 3
0 103 -198 221 -440z"/>
</g>
</svg>
