<?xml version="1.0" encoding="UTF-8"?>
<svg width="752pt" height="752pt" version="1.1" viewBox="0 0 752 752" xmlns="http://www.w3.org/2000/svg">
 <path d="m505.76 162.89h-230.63c-15.156 0-20.836 8.0508-8.9961 19.891 15.629 15.629 34.098 34.57 62.512 59.199 0 0-128.34 80.035-106.08 211.69 22.258 131.18 175.7 147.29 179.49 129.76 4.2617-18-89.035-36.941-65.832-96.141 22.73-57.777 43.57-79.562 102.77-134.97 29.363 29.363 53.043 55.883 71.512 74.352 12.312 13.262 21.785 12.312 21.785-5.6836v-234.42c0-17.051-7.1016-23.68-26.52-23.68z" fill-rule="evenodd"/>
</svg>
