<?xml version="1.0" standalone="no"?>
<!DOCTYPE svg PUBLIC "-//W3C//DTD SVG 20010904//EN"
 "http://www.w3.org/TR/2001/REC-SVG-20010904/DTD/svg10.dtd">
<svg version="1.0" xmlns="http://www.w3.org/2000/svg"
 width="1440.000000pt" height="1260.000000pt" viewBox="0 0 1440.000000 1260.000000"
 preserveAspectRatio="xMidYMid meet">

<g transform="translate(0.000000,1260.000000) scale(0.100000,-0.100000)"
fill="#000000" stroke="none">
<path d="M8100 12150 l0 -450 -900 0 -900 0 0 -450 0 -450 -450 0 -450 0 0
-450 0 -450 -900 0 -900 0 0 -450 0 -450 -450 0 -450 0 0 450 0 450 -450 0
-450 0 0 -900 0 -900 1800 0 1800 0 0 -450 0 -450 -900 0 -900 0 0 -450 0
-450 -450 0 -450 0 0 450 0 450 -450 0 -450 0 0 -900 0 -900 1800 0 1800 0 0
-1800 0 -1800 -900 0 -900 0 0 -450 0 -450 -450 0 -450 0 0 450 0 450 -450 0
-450 0 0 -900 0 -900 2250 0 2250 0 0 450 0 450 1350 0 1350 0 0 450 0 450
1350 0 1350 0 0 -450 0 -450 900 0 900 0 0 -450 0 -450 450 0 450 0 0 5400 0
5400 -450 0 -450 0 0 450 0 450 -900 0 -900 0 0 450 0 450 -1800 0 -1800 0 0
-450z m3600 -1800 l0 -450 450 0 450 0 0 -1350 0 -1350 -450 0 -450 0 0 450 0
450 -450 0 -450 0 0 1350 0 1350 450 0 450 0 0 -450z m-2700 -5400 l0 -1350
-450 0 -450 0 0 -450 0 -450 -450 0 -450 0 0 1350 0 1350 450 0 450 0 0 450 0
450 450 0 450 0 0 -1350z m2700 900 l0 -450 450 0 450 0 0 -1350 0 -1350 -450
0 -450 0 0 450 0 450 -450 0 -450 0 0 1350 0 1350 450 0 450 0 0 -450z"/>
<path d="M0 9900 l0 -900 450 0 450 0 0 900 0 900 -450 0 -450 0 0 -900z"/>
<path d="M0 7200 l0 -900 450 0 450 0 0 900 0 900 -450 0 -450 0 0 -900z"/>
<path d="M0 1800 l0 -900 450 0 450 0 0 900 0 900 -450 0 -450 0 0 -900z"/>
</g>
</svg>
